{"title":"Paradh [2010] Marathi 1 CD Xvid DVDRip ESubs MDG@Mastitorrents","uid":6152835,"size":731318466,"categoryP":"video","categoryS":"movies","magnet":"?xt=urn:btih:c1277378f0048fc4823248155c0c528c32391221&amp;dn=Paradh+%5B2010%5D+Marathi+1+CD+Xvid+DVDRip+ESubs+MDG%40Mastitorrents&amp;tr=udp%3A%2F%2Ftracker.openbittorrent.com%3A80&amp;tr=udp%3A%2F%2Fopen.demonii.com%3A1337&amp;tr=udp%3A%2F%2Ftracker.coppersurfer.tk%3A6969&amp;tr=udp%3A%2F%2Fexodus.desync.com%3A6969","seeders":0,"leechers":1,"uploader":"amanrulz","files":3,"time":1296931138,"description":"mastitorrents.com\n &lt;a href=&quot;\nhttp://mastitorrents.com/forums/index.php&quot; rel=&quot;nofollow&quot; target=&quot;_NEW&quot;&gt;\nhttp://mastitorrents.com/forums/index.php&lt;/a&gt;\n\nGeneral\nName                             : Paradh\nFormat                           : AVI\nFormat/Info                      : Audio Video Interleave\nFormat profile                   : OpenDML\nFile size                        : 697 MiB\nDuration                         : 2h 2mn\nOverall bit rate                 : 793 Kbps\nWriting application              : AVI-Mux GUI 1.17.8.3\n\n\nVideo\nID                               : 0\nFormat                           : MPEG-4 Visual\nFormat profile                   : Advanced Simple@L5\nFormat settings, BVOP            : Yes\nFormat settings, QPel            : No\nFormat settings, GMC             : No warppoints\nFormat settings, Matrix          : Default (H.263)\nCodec ID                         : XVID\nCodec ID/Hint                    : XviD\nDuration                         : 2h 2mn\nBit rate                         : 726 Kbps\nWidth                            : 608 pixels\nHeight                           : 304 pixels\nDisplay aspect ratio             : 2.000\nFrame rate                       : 23.976 fps\nColor space                      : YUV\nChroma subsampling               : 4:2:0\nBit depth                        : 8 bits\nScan type                        : Progressive\nBits/(Pixel*Frame)               : 0.164\nStream size                      : 638 MiB (91%)\nWriting library                  : XviD 1.2.1 \n\n\nAudio\nID                               : 1\nFormat                           : MPEG Audio\nFormat version                   : Version 2\nFormat profile                   : Layer 3\nMode                             : Joint stereo\nMode extension                   : MS Stereo\nCodec ID                         : 55\nCodec ID/Hint                    : MP3\nDuration                         : 2h 2mn\nBit rate mode                    : Constant\nBit rate                         : 64.0 Kbps\nChannel(s)                       : 2 channels\nSampling rate                    : 24.0 KHz\nStream size                      : 56.3 MiB (8%)\n\n\n\nSource                           : DVD 9 \nRipper                           : Nordmariner","torrent":{"xt":"urn:btih:c1277378f0048fc4823248155c0c528c32391221","amp;dn":"Paradh+%5B2010%5D+Marathi+1+CD+Xvid+DVDRip+ESubs+MDG%40Mastitorrents","amp;tr":["udp%3A%2F%2Ftracker.openbittorrent.com%3A80","udp%3A%2F%2Fopen.demonii.com%3A1337","udp%3A%2F%2Ftracker.coppersurfer.tk%3A6969","udp%3A%2F%2Fexodus.desync.com%3A6969"],"infoHash":"c1277378f0048fc4823248155c0c528c32391221","infoHashBuffer":{"type":"Buffer","data":[193,39,115,120,240,4,143,196,130,50,72,21,92,12,82,140,50,57,18,33]},"announce":[],"urlList":[]}}